<?xml version="1.0" standalone="no"?><!DOCTYPE svg PUBLIC "-//W3C//DTD SVG 1.1//EN" "http://www.w3.org/Graphics/SVG/1.1/DTD/svg11.dtd"><svg t="1643180319153" class="icon" viewBox="0 0 1024 1024" version="1.1" xmlns="http://www.w3.org/2000/svg" p-id="4996" xmlns:xlink="http://www.w3.org/1999/xlink" width="200" height="200"><defs><style type="text/css"></style></defs><path d="M512 981.312A469.632 469.632 0 0 1 42.688 512 469.632 469.632 0 0 1 512 42.688 469.632 469.632 0 0 1 981.312 512 469.632 469.632 0 0 1 512 981.312zM512 136.832a375.168 375.168 0 1 0 0 750.272A375.168 375.168 0 0 0 512 136.832z" fill="#172B4D" p-id="4997"></path><path d="M711.36 695.68a52.864 52.864 0 0 1-26.688-7.872L485.312 551.232A49.088 49.088 0 0 1 464.896 512V226.304c0-26.688 20.48-47.104 47.104-47.104 26.688 0 47.104 20.48 47.104 47.104v260.608l178.944 122.432c21.952 14.08 26.688 43.904 12.544 65.92a45.184 45.184 0 0 1-39.232 20.416z" fill="#172B4D" p-id="4998"></path></svg>