<?xml version="1.0" standalone="no"?><!DOCTYPE svg PUBLIC "-//W3C//DTD SVG 1.1//EN" "http://www.w3.org/Graphics/SVG/1.1/DTD/svg11.dtd"><svg t="1643183836459" class="icon" viewBox="0 0 1024 1024" version="1.1" xmlns="http://www.w3.org/2000/svg" p-id="2618" xmlns:xlink="http://www.w3.org/1999/xlink" width="200" height="200"><defs><style type="text/css"></style></defs><path d="M474.709333 109.568a40.704 40.704 0 0 1 71.936-4.821333l2.645334 4.821333L658.602667 341.333333l244.437333 37.162667c32.426667 4.949333 46.336 44.928 26.282667 70.485333l-3.242667 3.712-176.896 180.394667 41.770667 254.72c5.546667 33.877333-26.666667 60.117333-56.149334 47.829333l-4.181333-2.005333L512 813.312l-218.624 120.277333c-29.098667 16-62.933333-7.978667-60.842667-41.088l0.512-4.778666 41.770667-254.72-176.896-180.352c-23.466667-23.978667-12.245333-64.853333 18.346667-73.173334l4.693333-1.024L365.44 341.333333l109.269333-231.765333z m126.122667 309.290667L512 230.570667 423.168 418.858667l-207.914667 31.573333 150.741334 153.728-34.602667 211.072L512 715.946667l180.565333 99.285333-34.56-211.072 150.698667-153.728-207.872-31.573333z" fill="#171A1D" p-id="2619"></path></svg>