<?xml version="1.0" standalone="no"?><!DOCTYPE svg PUBLIC "-//W3C//DTD SVG 1.1//EN" "http://www.w3.org/Graphics/SVG/1.1/DTD/svg11.dtd"><svg class="icon" width="200px" height="200.00px" viewBox="0 0 1024 1024" version="1.1" xmlns="http://www.w3.org/2000/svg"><path fill="#000000" d="M855.9 98.9L523.5 431.3c-43.7-29.9-96.5-47.5-153.5-47.5-150.1 0-271.7 121.6-271.7 271.7S219.9 927.2 370 927.2s271.7-121.6 271.7-271.7c0-58.4-18.5-112.6-49.8-156.9l111.5-111.5 96.8 96.8 67.9-67.9-96.8-96.8 152.5-152.5-67.9-67.8zM370 831.2c-46.9 0-91.1-18.3-124.2-51.5-33.2-33.2-51.5-77.3-51.5-124.2 0-46.9 18.3-91.1 51.5-124.2 33.2-33.2 77.3-51.5 124.2-51.5 46.9 0 91.1 18.3 124.2 51.5 33.2 33.2 51.5 77.3 51.5 124.2 0 46.9-18.3 91.1-51.5 124.2-33.2 33.2-77.3 51.5-124.2 51.5z" /></svg>