<?xml version="1.0" standalone="no"?><!DOCTYPE svg PUBLIC "-//W3C//DTD SVG 1.1//EN" "http://www.w3.org/Graphics/SVG/1.1/DTD/svg11.dtd"><svg class="icon" width="200px" height="200.00px" viewBox="0 0 1024 1024" version="1.1" xmlns="http://www.w3.org/2000/svg"><path fill="#000000" d="M512.093091 582.888727a29.090909 29.090909 0 0 0-28.997818 29.137455v116.549818a29.090909 29.090909 0 1 0 58.088727 0V612.072727a29.137455 29.137455 0 0 0-29.090909-29.137454z m293.608727-233.099636h-17.780363V276.945455c0-152.669091-123.810909-276.852364-275.828364-276.852364-152.064 0-275.781818 124.229818-275.781818 276.852364v72.843636h-17.733818a171.473455 171.473455 0 0 0-170.961455 171.566545v297.890909a171.473455 171.473455 0 0 0 170.961455 171.613091H805.701818a171.426909 171.426909 0 0 0 170.914909-171.613091v-297.890909a171.426909 171.426909 0 0 0-170.914909-171.566545zM323.397818 276.945455c0-104.448 84.712727-189.44 188.695273-189.44 104.029091 0 188.695273 84.992 188.695273 189.44v72.843636H323.397818V276.945455zM889.530182 819.2c0 46.452364-37.608727 84.200727-83.828364 84.200727H218.577455c-46.266182 0-83.874909-37.701818-83.87491-84.200727v-297.890909c0-46.359273 37.608727-84.154182 83.87491-84.154182H805.701818c46.219636 0 83.828364 37.794909 83.828364 84.200727v297.890909z" /></svg>