<?xml version="1.0" standalone="no"?><!DOCTYPE svg PUBLIC "-//W3C//DTD SVG 1.1//EN" "http://www.w3.org/Graphics/SVG/1.1/DTD/svg11.dtd"><svg class="icon" width="64px" height="64.00px" viewBox="0 0 1024 1024" version="1.1" xmlns="http://www.w3.org/2000/svg"><path fill="#000000" d="M474.455602 510.665689h68.262542v332.097264h-68.262542zM337.93052 510.665689h68.262541v332.097264h-68.262541zM610.980685 510.665689h68.262541v332.097264H610.980685z"  /><path fill="#000000" d="M199.698873 341.033274v583.303416c0 55.633971 41.64015 97.615434 96.591496 97.615434H724.979129c55.292658 0 93.519682-41.981463 93.519682-97.615434V341.033274h-618.799938zM724.979129 949.935143H296.290369c-15.359072 0-25.598453-10.239381-25.598453-25.598453V402.810874H746.823142v521.525816h0.341313c0 15.700385-6.484941 25.598453-22.185326 25.598453zM736.242448 206.214755l-23.550576-103.41775c-3.413127-15.700385-11.945945-30.376831-25.939766-43.688027S657.740526 37.606278 641.698829 34.875776L448.857149 1.085818c-16.041697-2.730502-32.76602-0.341313-50.51428 7.50888-17.748261 7.50888-30.718144 18.430886-39.250962 32.424707l-57.340534 89.423929-155.979907-27.305017-12.969883 74.064858 743.720388 129.698828 12.969883-74.064857-153.249406-26.622391z m-311.277188-122.531262c3.413127-3.071814 7.50888-4.437065 11.604632-4.778378L628.04632 112.35376c3.75444 1.365251 6.826254 4.437065 9.215443 8.532818l15.700385 70.993043L385.714299 145.11978l39.250961-61.436287z"  /></svg>