<?xml version="1.0" standalone="no"?><!DOCTYPE svg PUBLIC "-//W3C//DTD SVG 1.1//EN" "http://www.w3.org/Graphics/SVG/1.1/DTD/svg11.dtd"><svg class="icon" width="200px" height="200.00px" viewBox="0 0 1024 1024" version="1.1" xmlns="http://www.w3.org/2000/svg"><path fill="#000000" d="M861.866667 264.533333c48.469333 69.802667 76.8 154.282667 76.8 247.466667 0 234.530133-191.0272 426.325333-426.666667 426.666667l0 85.333333c282.769067 0 512-230.152533 512-512 0-103.995733-29.5424-198.997333-76.8-281.6l0 8.533333c25.1648 1.928533 48.5376-11.639467 51.2-34.133333 9.5232-23.159467-3.976533-46.702933-25.6-51.2l-119.466667-34.133333c-8.413867-1.5872-19.950933 0.273067-25.6 8.533333-13.303467 2.696533-20.667733 11.8016-25.6 25.6l-25.6 110.933333c-9.540267 25.429333 3.968 48.896 25.6 51.2 23.850667 9.9328 47.291733-3.626667 51.2-25.6l8.533334-25.6zM162.133333 759.466667c-48.469333-69.802667-76.8-154.282667-76.8-247.466667 0-234.530133 191.0272-426.325333 426.666667-426.666667L512 0C229.230933 0 0 230.152533 0 512c0 103.995733 29.5424 198.997333 76.8 281.6l0-8.533333c-25.1648-1.928533-48.5376 11.639467-51.2 34.133333-9.5232 23.159467 3.976533 46.702933 25.6 51.2l119.466667 34.133333c8.413867 1.5872 19.950933-0.273067 25.6-8.533333 13.303467-2.696533 20.667733-11.8016 25.6-25.6l25.6-110.933333c9.540267-25.429333-3.968-48.896-25.6-51.2-23.850667-9.9328-47.291733 3.626667-51.2 25.6l-8.533334 25.6z" /></svg>