<?xml version="1.0" standalone="no"?><!DOCTYPE svg PUBLIC "-//W3C//DTD SVG 1.1//EN" "http://www.w3.org/Graphics/SVG/1.1/DTD/svg11.dtd"><svg class="icon" width="200px" height="200.00px" viewBox="0 0 1024 1024" version="1.1" xmlns="http://www.w3.org/2000/svg"><path fill="#000000" d="M716 705.5s6.2 15 29.7 15c19.8 0 35.8-16 35.8-35.8 0-23.3-14.7-29.9-14.7-29.9-39.7-47.5-90.8-84.7-148.9-108.5 71.6-46.9 119-127.7 119-219.7 0-145-117.6-262.6-262.6-262.6S211.6 181.6 211.6 326.6c0 91.8 47.2 172.5 118.6 219.5-117.8 48.2-206.2 153.6-230.5 282-0.6 3.4-4.3 18.9-4.3 23.6 0 19.8 16 35.8 35.8 35.8 19.8 0 35.8-16 35.8-35.8 0 0 25.2-262.6 307.2-262.6 97.9 0.1 185 45.5 241.8 116.4z m-241.8-188c-105.5 0-191-85.5-191-191s85.5-191 191-191 191 85.5 191 191-85.5 191-191 191zM918.1 747c-14-14-36.7-14-50.6 0L740.9 873.6l-59.1-59.1c-14-14-36.7-14-50.6 0-14 14-14 36.7 0 50.6l84.4 84.4c14 14 36.7 14 50.6 0l151.9-151.9c14-14 14-36.7 0-50.6z"  /></svg>