<?xml version="1.0" standalone="no"?><!DOCTYPE svg PUBLIC "-//W3C//DTD SVG 1.1//EN" "http://www.w3.org/Graphics/SVG/1.1/DTD/svg11.dtd"><svg class="icon" width="200px" height="200.00px" viewBox="0 0 1024 1024" version="1.1" xmlns="http://www.w3.org/2000/svg"><path fill="#000000" d="M344.306332 368.899722m45.254834 45.254834l181.019336 181.019336q45.254834 45.254834 0 90.509668l0 0q-45.254834 45.254834-90.509668 0l-181.019336-181.019336q-45.254834-45.254834 0-90.509668l0 0q45.254834-45.254834 90.509668 0Z"  /><path fill="#000000" d="M895.782317 187.249506m45.254834 45.254834l0 0q45.254834 45.254834 0 90.509668l-362.038672 362.038672q-45.254834 45.254834-90.509668 0l0 0q-45.254834-45.254834 0-90.509668l362.038672-362.038672q45.254834-45.254834 90.509668 0Z"  /><path fill="#000000" d="M896 576a64 64 0 0 0-64 64v192H192V192h384a64 64 0 0 0 0-128H192a128 128 0 0 0-128 128v640a128 128 0 0 0 128 128h640a128 128 0 0 0 128-128v-192a64 64 0 0 0-64-64z"  /></svg>