<?xml version="1.0" standalone="no"?><!DOCTYPE svg PUBLIC "-//W3C//DTD SVG 1.1//EN" "http://www.w3.org/Graphics/SVG/1.1/DTD/svg11.dtd"><svg t="1577874230898" class="icon" viewBox="0 0 1024 1024" version="1.1" xmlns="http://www.w3.org/2000/svg" p-id="4042" xmlns:xlink="http://www.w3.org/1999/xlink" width="200" height="200"><defs><style type="text/css"></style></defs><path d="M512 1024c282.624 0 512-229.376 512-512s-229.376-512-512-512-512 229.376-512 512 229.376 512 512 512zM512 71.68c241.664 0 440.32 196.608 440.32 440.32S753.664 952.32 512 952.32 71.68 753.664 71.68 512 270.336 71.68 512 71.68z m-192.512 626.688a37.76 37.76 0 0 0 24.576 10.24 37.76 37.76 0 0 0 24.576-10.24l141.312-141.312 141.312 141.312a37.76 37.76 0 0 0 24.64 10.24 35.712 35.712 0 0 0 24.512-61.44L559.104 505.856l141.248-141.312a35.712 35.712 0 0 0 0-51.2 35.776 35.776 0 0 0-51.136 0L512 454.656 370.688 313.344a35.84 35.84 0 0 0-51.2 0 35.84 35.84 0 0 0 0 51.2L460.8 505.856l-141.312 141.312a35.84 35.84 0 0 0 0 51.2z m0 0" fill="" p-id="4043"></path></svg>