<?xml version="1.0" standalone="no"?><!DOCTYPE svg PUBLIC "-//W3C//DTD SVG 1.1//EN" "http://www.w3.org/Graphics/SVG/1.1/DTD/svg11.dtd"><svg class="icon" width="64px" height="64.00px" viewBox="0 0 1024 1024" version="1.1" xmlns="http://www.w3.org/2000/svg"><path fill="#000000" d="M799.085714 874.276571c0 34.377143-27.940571 62.390857-62.317714 62.390858H287.305143a62.464 62.464 0 0 1-62.390857-62.390858V212.114286h574.171428v662.162285zM349.622857 100.205714c0-7.168 5.632-12.8 12.8-12.8h299.885714c7.241143 0 12.8 5.632 12.8 12.8v37.595429H349.622857v-37.595429z m636.635429 37.595429h-236.763429v-37.595429c0-47.981714-39.131429-87.186286-87.113143-87.186285h-299.885714A87.332571 87.332571 0 0 0 275.236571 100.205714v37.595429H37.741714a37.522286 37.522286 0 1 0 0 75.190857h111.908572v661.357714a137.508571 137.508571 0 0 0 137.654857 137.508572h449.389714a137.508571 137.508571 0 0 0 137.581714-137.508572V212.114286h111.908572c20.845714 0 37.668571-16.822857 37.668571-37.595429a36.864 36.864 0 0 0-37.595428-36.790857zM512 823.881143c20.772571 0 37.595429-16.822857 37.595429-37.595429V386.413714a37.522286 37.522286 0 1 0-75.190858 0v399.872c0 20.845714 16.822857 37.595429 37.595429 37.595429z m-175.177143 0c20.845714 0 37.595429-16.822857 37.595429-37.595429V386.413714a37.522286 37.522286 0 1 0-75.117715 0v399.872c0.731429 20.845714 17.554286 37.595429 37.522286 37.595429z m350.354286 0c20.772571 0 37.595429-16.822857 37.595428-37.595429V386.413714a37.522286 37.522286 0 1 0-75.190857 0v399.872c0 20.845714 16.822857 37.595429 37.595429 37.595429z" /></svg>