<?xml version="1.0" standalone="no"?><!DOCTYPE svg PUBLIC "-//W3C//DTD SVG 1.1//EN" "http://www.w3.org/Graphics/SVG/1.1/DTD/svg11.dtd"><svg class="icon" width="200px" height="200.00px" viewBox="0 0 1024 1024" version="1.1" xmlns="http://www.w3.org/2000/svg"><path fill="#000000" d="M768 1024H256a128 128 0 0 1-128-128V256H85.333333a42.666667 42.666667 0 0 1 0-85.333333h213.333334V128a128 128 0 0 1 128-128h170.666666a128 128 0 0 1 128 128v42.666667h213.333334a42.666667 42.666667 0 0 1 0 85.333333h-42.666667v640a128 128 0 0 1-128 128zM213.333333 256v640a42.666667 42.666667 0 0 0 42.666667 42.666667h512a42.666667 42.666667 0 0 0 42.666667-42.666667V256z m170.666667-85.333333h256V128a42.666667 42.666667 0 0 0-42.666667-42.666667h-170.666666a42.666667 42.666667 0 0 0-42.666667 42.666667z m234.666667 597.333333a42.666667 42.666667 0 0 1-42.666667-42.666667v-256a42.666667 42.666667 0 0 1 85.333333 0v256a42.666667 42.666667 0 0 1-42.666666 42.666667z m-213.333334 0a42.666667 42.666667 0 0 1-42.666666-42.666667v-256a42.666667 42.666667 0 0 1 85.333333 0v256a42.666667 42.666667 0 0 1-42.666667 42.666667z" /></svg>