<?xml version="1.0" standalone="no"?><!DOCTYPE svg PUBLIC "-//W3C//DTD SVG 1.1//EN" "http://www.w3.org/Graphics/SVG/1.1/DTD/svg11.dtd"><svg class="icon" width="200px" height="200.00px" viewBox="0 0 1024 1024" version="1.1" xmlns="http://www.w3.org/2000/svg"><path fill="#000000" d="M147.344074 1023.979909c-52.520548 0-95.254464-42.733916-95.254464-95.254464v-416.735491c0-52.52278 42.733916-95.254464 95.254464-95.254464h113.113281v-165.205217c0-138.693804 112.838702-251.530273 251.532505-251.530273 138.698268 0 251.534738 112.836469 251.534738 251.530273 0 23.799106-19.363422 43.162528-43.16476 43.162528-23.799106 0-43.160296-19.363422-43.160296-43.162528 0-91.095592-74.111857-165.205217-165.207449-165.205217-91.097825 0-165.209682 74.109625-165.209682 165.205217v165.205217h529.855468c52.52278 0 95.254464 42.731684 95.254464 95.254464v416.737723c0 52.520548-42.731684 95.254464-95.254464 95.254464H147.344074z m-8.929408-86.322824h747.145924v-434.594307H138.414666v434.594307z m373.572962-122.042689c-23.801338 0-43.16476-19.363422-43.16476-43.16476v-104.183873c0-23.796873 19.363422-43.160296 43.16476-43.160295s43.16476 19.363422 43.16476 43.160295v104.183873c0 23.801338-19.363422 43.16476-43.16476 43.16476z" /></svg>