<?xml version="1.0" standalone="no"?><!DOCTYPE svg PUBLIC "-//W3C//DTD SVG 1.1//EN" "http://www.w3.org/Graphics/SVG/1.1/DTD/svg11.dtd"><svg class="icon" width="200px" height="200.00px" viewBox="0 0 1024 1024" version="1.1" xmlns="http://www.w3.org/2000/svg"><path fill="#000000" d="M272 64C157.1 64 64 157.1 64 272s93.1 208 208 208h207.6c0.2 0 0.4-0.2 0.4-0.4V272c0-114.9-93.1-208-208-208z m144 352H272c-38.5 0-74.6-15-101.8-42.2C143 346.6 128 310.5 128 272s15-74.6 42.2-101.8C197.4 143 233.5 128 272 128s74.6 15 101.8 42.2C401 197.4 416 233.5 416 272v144zM752 64c-114.9 0-208 93.1-208 208v207.6c0 0.2 0.2 0.4 0.4 0.4H752c114.9 0 208-93.1 208-208S866.9 64 752 64z m101.8 309.8C826.6 401 790.5 416 752 416H608V272c0-38.5 15-74.6 42.2-101.8C677.4 143 713.5 128 752 128s74.6 15 101.8 42.2C881 197.4 896 233.5 896 272s-15 74.6-42.2 101.8zM479.6 544H272c-114.9 0-208 93.1-208 208s93.1 208 208 208 208-93.1 208-208V544.4c0-0.2-0.2-0.4-0.4-0.4zM416 752c0 38.5-15 74.6-42.2 101.8C346.6 881 310.5 896 272 896s-74.6-15-101.8-42.2C143 826.6 128 790.5 128 752s15-74.6 42.2-101.8C197.4 623 233.5 608 272 608h144v144zM752 544H544.4c-0.2 0-0.4 0.2-0.4 0.4V752c0 114.9 93.1 208 208 208s208-93.1 208-208-93.1-208-208-208z m101.8 309.8C826.6 881 790.5 896 752 896s-74.6-15-101.8-42.2C623 826.6 608 790.5 608 752V608h144c38.5 0 74.6 15 101.8 42.2C881 677.4 896 713.5 896 752s-15 74.6-42.2 101.8z"  /></svg>