<?xml version="1.0" standalone="no"?><!DOCTYPE svg PUBLIC "-//W3C//DTD SVG 1.1//EN" "http://www.w3.org/Graphics/SVG/1.1/DTD/svg11.dtd"><svg class="icon" width="200px" height="200.00px" viewBox="0 0 1024 1024" version="1.1" xmlns="http://www.w3.org/2000/svg"><path fill="#000000" d="M792 64H232c-92.6 0-168 75.4-168 168v560c0 92.6 75.4 168 168 168h560c92.6 0 168-75.4 168-168V232c0-92.6-75.4-168-168-168z m56 728c0 30.9-25.1 56-56 56H232c-30.9 0-56-25.1-56-56V232c0-30.9 25.1-56 56-56h560c30.9 0 56 25.1 56 56v560z" /></svg>